<svg width="30" height="30" viewBox="0 0 30 30" fill="none" xmlns="http://www.w3.org/2000/svg">
<path d="M15.0001 7.5C16.841 7.5 18.3334 5.82107 18.3334 3.75C18.3334 1.67893 16.841 0 15.0001 0C13.1591 0 11.6667 1.67893 11.6667 3.75C11.6667 5.82107 13.1591 7.5 15.0001 7.5Z" fill="#3D749C"/>
<path d="M30 22.5V18.75C26.2667 18.75 23.0667 16.95 20.6667 13.725L18.4333 10.725C17.8 9.8625 16.8667 9.375 15.8833 9.375H14.1333C13.15 9.375 12.2167 9.8625 11.5833 10.725L9.35 13.725C6.93333 16.95 3.73333 18.75 0 18.75V22.5C4.61667 22.5 8.65 20.3062 11.6667 16.4062V20.625L5.2 23.5312C4.08333 24.0375 3.33333 25.275 3.33333 26.6437C3.33333 28.5 4.66667 30 6.31667 30H10V29.0625C10 26.475 11.8667 24.375 14.1667 24.375H19.1667C19.6333 24.375 20 24.7875 20 25.3125C20 25.8375 19.6333 26.25 19.1667 26.25H14.1667C12.7833 26.25 11.6667 27.5063 11.6667 29.0625V30H23.6833C25.3333 30 26.6667 28.5 26.6667 26.6437C26.6667 25.275 25.9167 24.0375 24.8 23.5312L18.3333 20.625V16.4062C21.35 20.3062 25.3833 22.5 30 22.5Z" fill="#3D749C"/>
</svg>
