<?xml version="1.0" encoding="UTF-8"?>
<!DOCTYPE svg PUBLIC "-//W3C//DTD SVG 1.1//EN" "http://www.w3.org/Graphics/SVG/1.1/DTD/svg11.dtd">
<!-- Creator: CorelDRAW X7 -->
<svg xmlns="http://www.w3.org/2000/svg" xml:space="preserve" width="71.4006mm" height="71.4008mm" version="1.1" style="shape-rendering:geometricPrecision; text-rendering:geometricPrecision; image-rendering:optimizeQuality; fill-rule:evenodd; clip-rule:evenodd"
viewBox="0 0 2684 2684"
 xmlns:xlink="http://www.w3.org/1999/xlink">
 <defs>
  <style type="text/css">
   <![CDATA[
    .fil0 {fill:#FEFEFE}
    .fil1 {fill:#FEFEFE;fill-rule:nonzero}
   ]]>
  </style>
 </defs>
 <g id="Capa_x0020_1">
  <metadata id="CorelCorpID_0Corel-Layer"/>
  <g id="_460692856">
   <g>
    <path class="fil0" d="M677 1720c-38,0 -65,-8 -63,9 1,17 39,16 54,16 62,0 164,-35 203,-59 42,-26 134,-68 199,-68 80,0 95,2 168,45l205 136c19,11 34,21 56,31 89,38 135,8 222,-30 72,-31 202,-69 271,-6 10,8 10,15 24,16 9,-12 11,-19 -10,-36 -146,-110 -338,48 -420,48 -43,0 -71,-8 -105,-28 -15,-8 -60,-37 -68,-49 22,1 15,6 57,-2 37,-7 113,-37 147,-50 119,-48 239,-95 359,-22 17,10 33,19 48,32 9,6 15,11 22,18 8,7 14,14 26,15 7,-11 14,-14 -12,-35 -33,-25 -36,-30 -76,-54 -118,-69 -239,-31 -356,16 -47,19 -149,60 -196,60 -108,0 -198,-129 -328,-129 -59,0 -79,3 -134,20 -36,11 -62,26 -92,41 -34,18 -52,29 -92,42 -29,10 -72,23 -109,23z"/>
    <path class="fil0" d="M649 1792c-30,0 -9,-10 -31,-10 -24,0 -7,34 28,34 58,0 151,-36 198,-53 85,-30 155,-43 247,-43 79,0 178,46 242,86 23,15 46,29 68,44 94,67 149,183 256,183 31,0 102,-7 125,-21 15,-9 6,-23 -1,-23 -27,0 -123,53 -206,-10 -14,-10 -23,-19 -35,-30l-15 -16c-92,-93 -94,-97 -220,-169 -69,-41 -145,-68 -241,-68 -119,0 -209,41 -308,73 -28,9 -73,23 -107,23z"/>
   </g>
   <path class="fil1" d="M272 918c9,17 25,40 46,65 3,4 0,8 -8,10 -11,4 -20,6 -43,9 -14,2 -25,4 -32,8 -2,1 -3,1 -5,1 -1,1 -1,1 -2,1 -15,8 -11,27 5,28 2,0 4,0 5,0l0 0c16,4 34,9 57,18 19,6 46,17 83,31 36,14 63,25 82,31 1,1 8,3 19,8 20,7 32,11 45,14 5,0 8,1 12,-1 3,-1 5,-5 6,-9 1,-6 -4,-11 -10,-11 -9,-1 -23,-5 -31,-8 -4,-2 -10,-4 -17,-7 -7,-3 -13,-5 -17,-6 -18,-7 -46,-17 -82,-32 -36,-14 -64,-24 -82,-31 -4,-1 -8,-3 -13,-4 -9,-3 -9,-10 0,-13 14,-2 22,-5 38,-10 6,-2 11,-1 15,4 9,12 16,21 22,30 3,5 10,7 15,3 5,-2 6,-9 3,-15 -5,-6 -10,-15 -16,-23 -5,-6 -4,-12 4,-14 9,-3 17,-5 24,-7 6,-2 9,-8 7,-13 -1,-6 -7,-9 -12,-8 -10,2 -22,6 -37,11 -6,2 -11,1 -15,-4l-4 -5c-10,-12 -19,-24 -26,-34 -6,-8 -10,-17 -8,-17 1,1 2,1 3,2 3,0 15,4 35,10 26,7 51,15 74,23 65,20 112,34 163,46 6,2 11,-2 13,-9 2,-5 -2,-11 -8,-12 -54,-13 -98,-26 -162,-46 -25,-8 -49,-16 -74,-23 -20,-6 -31,-10 -35,-10 -9,-3 -16,-5 -21,-6 0,0 0,0 -1,0 -3,-1 -8,-1 -10,-2 -1,0 -2,0 -3,0 -2,1 -5,2 -6,4 -4,4 -5,8 -3,13 0,2 1,4 3,6 2,2 3,3 3,3l1 1zm202 -185c84,46 125,75 150,102 18,18 26,34 27,49 0,21 -11,33 -30,36 -14,2 -32,0 -55,-7 -49,-14 -172,-61 -215,-129 -9,-15 -13,-38 -7,-55 9,-27 34,-33 61,-28 17,4 37,12 69,32zm-34 5c-14,-8 -28,-13 -40,-15 -18,-4 -31,-1 -36,14 -4,10 -1,26 6,35 37,61 154,107 202,121 20,5 35,7 45,5 9,-2 12,-5 12,-13 -1,-19 -27,-46 -72,-77 -22,-15 -112,-68 -117,-70zm203 49c-3,-2 -8,-5 -14,-11 -6,-4 -10,-7 -11,-8 -5,-3 -7,-10 -3,-15 4,-5 11,-6 16,-2 1,1 5,4 11,8 12,10 15,11 24,17 10,6 17,8 25,10 9,2 16,1 20,-1 2,-2 3,-5 3,-9 1,-12 -5,-26 -16,-41 -27,-39 -131,-136 -180,-172 -6,-3 -11,-3 -16,2l-17 19c-5,5 -11,5 -16,1 -4,-4 -4,-11 0,-15 28,-31 49,-54 63,-71 4,-5 11,-6 16,-2 4,4 5,11 1,16 -5,6 -11,13 -18,20 -4,5 -4,11 2,15 53,39 155,135 183,174 14,20 20,37 20,54 -1,24 -18,37 -49,31 -10,-1 -20,-5 -32,-12l-12 -8zm27 -479c3,-5 9,-8 14,-5 6,2 8,8 6,14 -2,4 -4,12 -9,23 -4,10 -8,18 -11,24 -2,5 -9,8 -14,5 -5,-2 -8,-9 -5,-14 2,-5 5,-13 10,-23l9 -24zm137 121c19,29 38,63 57,100 24,49 37,88 29,110 -16,42 -54,34 -94,6 -30,-21 -61,-54 -74,-71 -35,-44 -70,-128 -54,-172 5,-13 9,-17 20,-24 44,-29 86,6 115,50l1 1zm-19 11c-26,-39 -57,-62 -85,-44 -8,6 -9,6 -11,13 -13,35 19,110 50,152 11,16 43,47 69,66 17,12 31,18 41,19 20,2 26,-15 16,-50 -5,-15 -13,-34 -24,-57 -18,-36 -36,-69 -55,-98l-1 -1zm235 50c1,2 -13,-10 -21,-18l11 13c-32,-36 -111,-143 -115,-148 -4,-5 -9,-12 -16,-19 -5,-6 -9,-10 -12,-13 -3,-3 -4,-5 -4,-5 -1,-1 -1,-1 -1,-1 -1,-2 -2,-3 -3,-4 -4,-6 -9,-8 -15,-7 -3,0 -6,1 -8,4 -4,6 -2,11 1,16 1,2 2,3 2,3 0,1 0,1 1,1l10 23c3,7 7,19 13,33 6,16 10,28 13,35 6,12 14,32 25,60 10,29 21,54 31,77 10,23 20,42 30,58 2,5 9,7 15,4 5,-3 6,-10 3,-15 -14,-25 -24,-45 -30,-60 -6,-15 -16,-37 -27,-68 -12,-29 -21,-51 -27,-64 -3,-8 -7,-19 -13,-34 0,0 16,17 22,25 8,10 18,24 30,39 23,31 42,56 59,74l30 34 14 15c2,2 3,4 4,6 2,1 3,2 4,3 1,0 2,1 2,1 4,1 9,0 12,-4 4,-3 4,-7 3,-12 0,-2 -1,-4 -1,-8 -2,-5 -5,-12 -9,-21l-17 -40c-6,-14 -16,-36 -31,-67 -30,-63 -48,-106 -60,-150 -3,-7 -8,-10 -14,-8 -6,2 -10,8 -8,13 14,47 32,91 62,154 16,32 26,55 31,67l4 8zm255 -310c24,1 39,13 56,34 34,41 44,92 31,155 -11,52 -38,103 -71,141 -2,2 -3,4 -5,4 -5,1 -13,1 -13,1 -5,0 -8,-3 -10,-8 0,-1 0,-1 0,-2 -4,-43 -5,-95 -4,-158 1,-22 4,-116 4,-156l0 -1c0,-6 5,-10 11,-10l1 0zm22 286c49,-74 71,-173 18,-238 -7,-7 -12,-13 -18,-17 -6,-6 -12,-1 -12,7 -1,40 -3,107 -4,130 -1,43 -1,82 1,115 0,10 9,13 15,3zm189 -267l23 3c27,5 42,8 44,8 3,0 6,-1 8,-3 2,-2 4,-4 4,-8 0,-6 -4,-11 -11,-11 -2,0 -16,-2 -41,-7l-35 -5c-5,0 -8,0 -10,1 -9,4 -13,15 -16,26 -4,17 -6,40 -8,70 -1,13 -1,21 -2,23 0,4 -1,12 -3,24 -3,13 -5,27 -8,45 -7,35 -15,81 -17,115 -1,10 -1,18 -1,24 1,8 3,16 9,20 9,5 22,9 40,10 4,1 11,1 20,2 8,0 13,1 17,1 6,1 11,-3 12,-9 1,-6 -3,-12 -9,-12 -4,-1 -10,-1 -18,-2 -16,-1 -30,-1 -41,-4 -5,-2 -8,-4 -8,-5 0,-1 0,-2 0,-3 -1,-5 0,-12 0,-21 2,-30 9,-71 18,-120 2,-7 6,-10 13,-9 6,0 12,1 16,1 6,1 11,-4 12,-10 1,-5 -4,-11 -10,-11 -4,0 -9,-1 -14,-2 -7,-1 -10,-5 -9,-13 2,-9 3,-15 3,-18 0,-3 1,-11 2,-25 1,-29 3,-50 7,-66 1,-4 2,-8 4,-10 0,0 3,0 9,1l0 0zm193 39c-18,45 -35,95 -56,160 -11,33 -19,57 -25,74 -7,21 -11,33 -12,37 -2,8 -4,15 -4,20 0,1 0,1 0,2 0,2 2,4 7,7 4,2 10,5 18,7 19,5 31,10 36,13 6,4 7,10 3,15 -3,5 -9,6 -14,3 -5,-3 -14,-6 -31,-10 -17,-6 -29,-11 -36,-18 -8,-9 -5,-26 0,-45 1,-4 6,-17 13,-38 6,-17 14,-41 25,-74 21,-66 38,-115 56,-161 2,-6 8,-8 14,-6 5,2 8,8 6,14zm249 292c34,-36 39,-40 67,-76 16,-20 27,-33 32,-39 1,-1 2,-2 2,-2 2,-2 5,-3 10,-4 3,0 6,0 9,3 6,7 17,17 33,30 16,13 28,24 35,31 4,5 4,12 0,16 -5,4 -11,4 -16,0 -6,-8 -17,-17 -33,-30 -8,-7 -14,-13 -19,-17 -6,-5 -11,-5 -16,1 -4,5 -11,14 -19,24 -14,17 -24,30 -33,39 -2,2 -6,6 -8,10 -6,5 -2,13 1,15 0,0 0,0 1,1 5,3 8,6 11,9 5,3 6,10 2,15 -4,4 -10,6 -15,2 -3,-3 -10,-8 -16,-12 -5,-4 -10,-3 -15,2 -48,51 -83,91 -102,120 -4,5 -11,7 -15,3 -5,-3 -7,-10 -3,-15 20,-28 49,-64 68,-84l39 -42zm256 123c-52,69 -108,133 -168,192 -4,4 -11,4 -15,0 -4,-4 -4,-11 0,-15 37,-37 72,-74 105,-114 5,-5 5,-10 0,-16 -9,-10 -18,-20 -27,-30 -4,-5 -10,-5 -15,-1 -16,13 -39,33 -68,57 -31,27 -49,42 -54,45 -5,4 -11,2 -15,-2 -4,-5 -3,-12 2,-16 4,-3 22,-17 53,-44 70,-59 119,-100 159,-127 25,-16 45,-26 59,-22 26,9 26,31 14,52 -6,10 -13,21 -23,32l-7 9zm-87 4c7,8 14,16 22,24 5,6 11,6 16,1 11,-14 21,-28 32,-42 2,-2 13,-15 20,-24 5,-7 10,-16 12,-23 1,-5 2,-10 -3,-11 -3,-1 -8,-1 -15,2 -7,4 -17,9 -28,16 -15,11 -33,24 -55,41 -6,5 -6,10 -1,16zm25 186c12,-6 20,-10 24,-12 69,-33 128,-65 175,-95 1,-1 1,-2 2,-4 5,-4 11,-4 16,1 30,33 36,69 21,99 -14,30 -50,47 -88,40 -20,-4 -38,-11 -54,-21 -6,-4 -11,-3 -15,3 -8,12 -19,27 -33,44 -3,5 -14,18 -33,39 -13,15 -23,28 -30,38 -3,6 -9,7 -15,4 -5,-3 -6,-10 -3,-15 7,-12 18,-25 31,-41 27,-31 43,-49 56,-68 6,-9 18,-24 -9,-10 -4,2 -8,4 -12,6 -4,2 -12,6 -24,11 -11,6 -20,10 -26,13 -12,5 -32,16 -46,25 -5,4 -12,2 -15,-3 -4,-5 -2,-12 3,-15 14,-9 36,-21 48,-27l27 -12zm96 -22c0,0 1,0 1,0 2,4 4,7 9,10 29,21 66,25 88,15 12,-6 20,-13 24,-23 9,-17 8,-38 -4,-58 -4,-7 -9,-7 -15,-4 -26,16 -57,34 -93,53 -7,3 -10,6 -10,7zm144 228c-89,38 -137,53 -173,56 -25,3 -44,-1 -56,-10 -16,-12 -18,-29 -9,-46 7,-11 20,-24 39,-38 41,-31 155,-98 234,-89 18,2 38,13 48,28 16,24 5,47 -16,65 -13,12 -32,22 -67,34zm16 -29c16,-7 28,-14 37,-22 15,-12 20,-24 11,-37 -5,-9 -19,-17 -31,-18 -70,-8 -180,56 -219,85 -17,12 -27,23 -33,32 -4,8 -3,13 3,18 16,11 54,7 105,-10 25,-7 123,-46 127,-48z"/>
   <path class="fil1" d="M1429 884c-27,30 -60,75 -94,134 -5,8 -15,5 -25,-9 -15,-19 -25,-33 -46,-76 -14,-26 -26,-45 -38,-57 -2,-2 -4,-4 -6,-8 -2,-1 -2,-2 -3,-3 -25,-24 -59,-3 -50,29 1,4 2,8 3,9l0 1c4,32 6,72 6,122 0,40 -1,100 -3,180 -4,80 -5,140 -5,180 0,4 0,18 -1,42 -1,44 0,70 5,97 2,9 2,17 8,23 6,5 14,6 22,5 12,-2 18,-15 15,-27 -4,-19 -5,-48 -5,-66 0,-9 0,-22 1,-37 0,-16 0,-28 0,-37 0,-40 1,-100 4,-180 2,-80 3,-140 3,-180 0,-9 0,-18 0,-27 -1,-21 13,-25 24,-10 14,26 25,40 46,67 8,11 9,21 3,32 -17,25 -30,45 -44,63 -7,8 -5,23 5,31 9,7 23,5 31,-5 10,-13 22,-29 33,-46 9,-15 21,-16 31,-3 12,16 22,29 29,41 8,10 21,13 31,6 10,-7 13,-20 7,-30 -11,-17 -27,-38 -47,-63 -8,-10 -8,-20 -3,-32l7 -10c16,-28 33,-54 48,-74 12,-18 26,-31 26,-28 0,2 0,6 0,8 1,7 2,31 5,73 3,57 5,109 6,159 6,139 11,239 24,346 1,13 12,21 25,20 12,-1 20,-12 19,-24 -13,-113 -19,-207 -23,-345 -1,-53 -4,-106 -7,-158 -2,-42 -3,-67 -4,-74 -1,-19 -3,-34 -4,-45 0,-1 0,-1 0,-2 -1,-7 -3,-16 -4,-20 -1,-2 -1,-3 -2,-6 -4,-4 -7,-7 -11,-10 -10,-4 -19,-3 -27,4 -3,2 -7,5 -10,11 -2,4 -3,7 -5,8l0 1z"/>
   <path class="fil0" d="M319 1387c29,0 53,24 53,53 0,30 -24,54 -53,54 -30,0 -54,-24 -54,-54 0,-29 24,-53 54,-53z"/>
   <path class="fil0" d="M2391 1387c30,0 54,24 54,53 0,30 -24,54 -54,54 -29,0 -53,-24 -53,-54 0,-29 24,-53 53,-53z"/>
   <path class="fil1" d="M426 1957l-59 42 -14 -20 150 -106 39 55c11,16 16,32 15,47 -2,16 -10,28 -24,38 -14,10 -29,14 -43,10 -14,-3 -27,-14 -39,-31l-25 -35zm16 -11l25 35c7,11 16,17 25,19 8,2 18,0 27,-7 9,-6 14,-14 15,-23 2,-10 -1,-19 -8,-29l-26 -37 -58 42zm62 219l-17 -17 133 -127 17 18 -133 126zm99 66l69 53 -12 16 -88 -68 112 -145 19 14 -100 130zm254 90l-69 -40 -32 57 81 45 -10 17 -101 -57 90 -160 100 57 -10 18 -79 -45 -29 51 69 39 -10 18zm218 -2l-56 -18 -51 155 -23 -7 51 -156 -56 -18 6 -19 135 44 -6 19zm123 142l-76 -13 -25 44 -24 -4 100 -169 21 4 38 192 -25 -4 -9 -50zm-65 -32l61 11 -16 -90 -45 79zm235 -11c-8,-8 -14,-15 -18,-22 -3,-7 -6,-14 -6,-20 -1,-13 2,-24 9,-32 7,-8 17,-12 30,-13 11,-1 21,2 29,8 8,6 12,14 13,25 0,12 -6,24 -19,37l-18 17 54 55c7,-13 10,-27 8,-43l14 -1c2,21 -2,39 -12,54l28 27 -19 1 -17 -17c-6,7 -13,13 -22,17 -8,5 -17,7 -27,8 -17,1 -31,-2 -42,-10 -11,-8 -17,-20 -18,-35 -1,-9 1,-17 6,-26 5,-8 13,-18 25,-28l2 -2zm26 88c8,0 15,-2 22,-6 7,-4 13,-9 19,-15l-56 -56 -2 -2 -5 5c-16,15 -23,29 -22,41 1,11 5,20 13,26 8,6 19,8 31,7zm-35 -132c1,10 7,22 20,35l15 -14c5,-4 9,-9 12,-14 3,-4 5,-10 4,-16 0,-7 -3,-12 -8,-16 -5,-4 -11,-6 -18,-5 -9,0 -15,4 -19,9 -5,6 -7,13 -6,21zm279 27l-51 14 21 74 -15 4 -51 -176 57 -17c19,-5 35,-5 48,1 13,7 22,18 27,34 3,11 3,22 -1,33 -4,10 -11,19 -22,25l66 63 0 1 -15 5 -64 -61zm-55 2l46 -13c12,-4 21,-10 27,-20 5,-9 6,-19 3,-31 -3,-12 -10,-21 -20,-25 -10,-5 -22,-5 -36,-1l-42 12 22 78zm269 -98l-78 35 31 68 90 -41 5 12 -104 48 -76 -167 103 -47 6 12 -89 41 28 62 79 -35 5 12zm125 12l73 -52 8 10 -87 62 -106 -150 13 -9 99 139zm181 -200l-61 57 22 51 -12 11 -75 -181 10 -10 177 85 -12 12 -49 -25zm-66 45l53 -51 -95 -47 42 98zm121 -198l-34 -87 11 -15 39 101 112 2 -11 16 -96 -3 34 90 -10 15 -40 -104 -109 -3 11 -15 93 3z"/>
   <path class="fil0" d="M1342 0c741,0 1342,601 1342,1342 0,741 -601,1342 -1342,1342 -741,0 -1342,-601 -1342,-1342 0,-741 601,-1342 1342,-1342zm0 28c725,0 1314,588 1314,1314 0,725 -589,1314 -1314,1314 -726,0 -1314,-589 -1314,-1314 0,-726 588,-1314 1314,-1314z"/>
  </g>
 </g>
</svg>
