<svg width="14" height="12" viewBox="0 0 14 12" fill="none" xmlns="http://www.w3.org/2000/svg">
<path d="M7 6.81928C6.76794 6.81928 6.54538 6.72709 6.38128 6.56299C6.21719 6.3989 6.125 6.17634 6.125 5.94428C6.125 5.71221 6.21719 5.48965 6.38128 5.32556C6.54538 5.16146 6.76794 5.06928 7 5.06928C7.23206 5.06928 7.45462 5.16146 7.61872 5.32556C7.78281 5.48965 7.875 5.71221 7.875 5.94428C7.875 6.17634 7.78281 6.3989 7.61872 6.56299C7.45462 6.72709 7.23206 6.81928 7 6.81928ZM6.692 8.56578C6.79408 8.68828 6.89675 8.80728 7 8.92103C7.10325 8.80728 7.20592 8.68886 7.308 8.56578C7.10269 8.57013 6.89731 8.57013 6.692 8.56578ZM5.52825 8.49286C5.08029 8.44624 4.63528 8.37458 4.19533 8.27819C4.15158 8.48236 4.11833 8.68069 4.09617 8.87086C3.98533 9.79428 4.13992 10.3554 4.375 10.4908C4.61008 10.6267 5.173 10.4797 5.91792 9.92261C6.07133 9.80769 6.22592 9.67994 6.38108 9.54053C6.07746 9.20751 5.79273 8.85774 5.52825 8.49286ZM9.80467 8.27819C9.38642 8.37153 8.93958 8.44386 8.47175 8.49286C8.20727 8.85774 7.92254 9.20751 7.61892 9.54053C7.77408 9.68053 7.92867 9.80769 8.08208 9.92261C8.827 10.4797 9.38992 10.6267 9.625 10.4908C9.86008 10.3554 10.0141 9.79428 9.90442 8.87086C9.88034 8.67191 9.84725 8.47415 9.80525 8.27819H9.80467ZM10.6505 8.05244C10.9871 9.59186 10.8103 10.8174 10.0625 11.2491C9.31467 11.6808 8.16492 11.2211 7 10.16C5.83508 11.2211 4.68533 11.6802 3.9375 11.2485C3.18967 10.8169 3.01292 9.59186 3.34892 8.05186C1.84742 7.57411 0.875 6.80761 0.875 5.94428C0.875 5.08094 1.84742 4.31503 3.34892 3.83611C3.01292 2.29669 3.18967 1.07111 3.9375 0.639442C4.68533 0.207775 5.83508 0.667442 7 1.72853C8.16492 0.667442 9.31467 0.208359 10.0625 0.640025C10.8103 1.07169 10.9871 2.29669 10.6511 3.83669C12.1526 4.31444 13.125 5.08094 13.125 5.94428C13.125 6.80761 12.1526 7.57353 10.6511 8.05244H10.6505ZM6.3805 2.34803C6.23215 2.21375 6.0778 2.08625 5.91792 1.96594C5.173 1.40886 4.61008 1.26186 4.375 1.39778C4.13992 1.53311 3.98592 2.09428 4.09558 3.01769C4.11892 3.20844 4.15158 3.40619 4.19475 3.61036C4.63489 3.51395 5.08009 3.44229 5.52825 3.39569C5.80533 3.01478 6.09117 2.66419 6.38108 2.34803H6.3805ZM8.47175 3.39569C8.93958 3.44469 9.38642 3.51761 9.80467 3.61036C9.84842 3.40619 9.88167 3.20786 9.90383 3.01769C10.0147 2.09428 9.86008 1.53311 9.625 1.39778C9.38992 1.26186 8.827 1.40886 8.08208 1.96594C7.922 2.08624 7.76745 2.21373 7.61892 2.34803C7.90883 2.66419 8.19467 3.01478 8.47175 3.39569ZM7.308 3.32278C7.20592 3.20028 7.10325 3.08128 7 2.96753C6.89675 3.08128 6.79408 3.19969 6.692 3.32278C6.89731 3.31842 7.10269 3.31842 7.308 3.32278ZM4.88367 7.52161C4.77724 7.34609 4.67455 7.16832 4.57567 6.98844C4.52025 7.13836 4.46892 7.28594 4.42225 7.43236C4.57217 7.46503 4.72617 7.49478 4.88308 7.52161H4.88367ZM6.01067 7.65811C6.66931 7.70703 7.33068 7.70703 7.98933 7.65811C8.36104 7.11208 8.69172 6.53923 8.97867 5.94428C8.69172 5.34932 8.36104 4.77647 7.98933 4.23044C7.33068 4.18152 6.66931 4.18152 6.01067 4.23044C5.63896 4.77647 5.30828 5.34932 5.02133 5.94428C5.30828 6.53923 5.63896 7.11208 6.01067 7.65811ZM9.42433 4.90011C9.47975 4.75019 9.53108 4.60261 9.57775 4.45619C9.42482 4.42301 9.27117 4.39325 9.11692 4.36694C9.22314 4.54247 9.32564 4.72023 9.42433 4.90011ZM3.57583 4.68253C3.3775 4.74669 3.18967 4.81669 3.0135 4.89253C2.15892 5.25886 1.75 5.67303 1.75 5.94428C1.75 6.21553 2.15833 6.62969 3.0135 6.99603C3.18967 7.07186 3.3775 7.14186 3.57583 7.20603C3.70533 6.79769 3.86575 6.37419 4.05708 5.94428C3.87323 5.53301 3.71256 5.11177 3.57583 4.68253ZM4.42167 4.45619C4.46892 4.60203 4.52025 4.75019 4.57567 4.89953C4.67456 4.71984 4.77725 4.54227 4.88367 4.36694C4.72617 4.39378 4.57217 4.42353 4.42225 4.45619H4.42167ZM10.4242 7.20603C10.6225 7.14186 10.8103 7.07186 10.9865 6.99603C11.8411 6.62969 12.25 6.21553 12.25 5.94428C12.25 5.67303 11.8417 5.25886 10.9865 4.89253C10.8023 4.81407 10.6147 4.744 10.4242 4.68253C10.2947 5.09086 10.1342 5.51436 9.94292 5.94428C10.1342 6.37419 10.2947 6.79711 10.4242 7.20603ZM9.57833 7.43236C9.53108 7.28653 9.47975 7.13836 9.42433 6.98903C9.32544 7.16871 9.22275 7.34628 9.11633 7.52161C9.27383 7.49478 9.42783 7.46503 9.57775 7.43236H9.57833Z" fill="white"/>
</svg>
