<svg width="32" height="30" viewBox="0 0 32 30" fill="none" xmlns="http://www.w3.org/2000/svg">
<path d="M20.9328 11.445C20.6534 7.26 18.9 3.18 15.6103 0C12.2897 3.21 10.4586 7.29 10.1017 11.445C12.0879 12.465 13.919 13.785 15.5172 15.39C17.1155 13.8 18.9466 12.48 20.9328 11.445ZM10.8466 15.42C10.6293 15.27 10.381 15.135 10.1483 14.985C10.381 15.15 10.6293 15.27 10.8466 15.42ZM15.5172 20.175C12.181 15.255 6.48621 12 0 12C0 19.98 5.21379 26.73 12.4603 29.235C13.4379 29.58 14.4621 29.835 15.5172 30C16.5724 29.82 17.581 29.565 18.5741 29.235C25.8207 26.73 31.0345 19.98 31.0345 12C24.5483 12 18.8534 15.255 15.5172 20.175Z" fill="#3D749C"/>
</svg>
